<svg xmlns="http://www.w3.org/2000/svg" xmlns:xlink="http://www.w3.org/1999/xlink" width="512" zoomAndPan="magnify" viewBox="0 0 384 383.999986" height="512" preserveAspectRatio="xMidYMid meet" version="1.0"><defs><clipPath id="44d687ac0e"><path d="M 38.398438 38.398438 L 345.601562 38.398438 L 345.601562 345.601562 L 38.398438 345.601562 Z M 38.398438 38.398438 " clip-rule="nonzero"/></clipPath><clipPath id="e624e76d9f"><path d="M 56.398438 38.398438 L 327.601562 38.398438 C 337.542969 38.398438 345.601562 46.457031 345.601562 56.398438 L 345.601562 327.601562 C 345.601562 337.542969 337.542969 345.601562 327.601562 345.601562 L 56.398438 345.601562 C 46.457031 345.601562 38.398438 337.542969 38.398438 327.601562 L 38.398438 56.398438 C 38.398438 46.457031 46.457031 38.398438 56.398438 38.398438 Z M 56.398438 38.398438 " clip-rule="nonzero"/></clipPath><clipPath id="5808c43fab"><path d="M 38.398438 137.832031 L 345.992188 137.832031 L 345.992188 345.601562 L 38.398438 345.601562 Z M 38.398438 137.832031 " clip-rule="nonzero"/></clipPath><clipPath id="0d2c1fe232"><path d="M 56.398438 137.832031 L 327.601562 137.832031 C 337.542969 137.832031 345.601562 145.894531 345.601562 155.832031 L 345.601562 327.601562 C 345.601562 337.542969 337.542969 345.601562 327.601562 345.601562 L 56.398438 345.601562 C 46.457031 345.601562 38.398438 337.542969 38.398438 327.601562 L 38.398438 155.832031 C 38.398438 145.894531 46.457031 137.832031 56.398438 137.832031 Z M 56.398438 137.832031 " clip-rule="nonzero"/></clipPath><clipPath id="db15a76f24"><path d="M 38.398438 137.832031 L 345.601562 137.832031 L 345.601562 192 L 38.398438 192 Z M 38.398438 137.832031 " clip-rule="nonzero"/></clipPath><clipPath id="ad9cfb7bc8"><path d="M 91.148438 220.371094 L 168.785156 220.371094 L 168.785156 375.953125 L 91.148438 375.953125 Z M 91.148438 220.371094 " clip-rule="nonzero"/></clipPath><clipPath id="9f7d628183"><path d="M 103.898438 220.371094 L 156.035156 220.371094 C 163.078125 220.371094 168.785156 226.082031 168.785156 233.121094 L 168.785156 362.945312 C 168.785156 369.984375 163.078125 375.695312 156.035156 375.695312 L 103.898438 375.695312 C 96.855469 375.695312 91.148438 369.984375 91.148438 362.945312 L 91.148438 233.121094 C 91.148438 226.082031 96.855469 220.371094 103.898438 220.371094 Z M 103.898438 220.371094 " clip-rule="nonzero"/></clipPath></defs><g clip-path="url(#44d687ac0e)"><g clip-path="url(#e624e76d9f)"><path fill="#2ecc71" d="M 38.398438 38.398438 L 345.601562 38.398438 L 345.601562 345.601562 L 38.398438 345.601562 Z M 38.398438 38.398438 " fill-opacity="1" fill-rule="nonzero"/></g></g><g clip-path="url(#5808c43fab)"><g clip-path="url(#0d2c1fe232)"><path fill="#1a5276" d="M 38.398438 137.832031 L 345.992188 137.832031 L 345.992188 345.601562 L 38.398438 345.601562 Z M 38.398438 137.832031 " fill-opacity="1" fill-rule="nonzero"/></g></g><g clip-path="url(#db15a76f24)"><path fill="#ffffff" d="M 38.398438 137.832031 L 345.625 137.832031 L 345.625 192 L 38.398438 192 Z M 38.398438 137.832031 " fill-opacity="1" fill-rule="nonzero"/></g><g clip-path="url(#ad9cfb7bc8)"><g clip-path="url(#9f7d628183)"><path fill="#ffffff" d="M 91.148438 220.371094 L 168.785156 220.371094 L 168.785156 375.648438 L 91.148438 375.648438 Z M 91.148438 220.371094 " fill-opacity="1" fill-rule="nonzero"/></g></g></svg>